<svg width="10" height="10" viewBox="0 0 20 2" fill="none" xmlns="http://www.w3.org/2000/svg">
<path d="M16 1C16 0.734784 16.2107 0.48043 16.5858 0.292893C16.9609 0.105357 17.4696 0 18 0C18.5304 0 19.0391 0.105357 19.4142 0.292893C19.7893 0.48043 20 0.734784 20 1C20 1.26522 19.7893 1.51957 19.4142 1.70711C19.0391 1.89464 18.5304 2 18 2C17.4696 2 16.9609 1.89464 16.5858 1.70711C16.2107 1.51957 16 1.26522 16 1ZM8 1C8 0.734784 8.21071 0.48043 8.58579 0.292893C8.96086 0.105357 9.46957 0 10 0C10.5304 0 11.0391 0.105357 11.4142 0.292893C11.7893 0.48043 12 0.734784 12 1C12 1.26522 11.7893 1.51957 11.4142 1.70711C11.0391 1.89464 10.5304 2 10 2C9.46957 2 8.96086 1.89464 8.58579 1.70711C8.21071 1.51957 8 1.26522 8 1ZM0 1C0 0.734784 0.210714 0.48043 0.585786 0.292893C0.960859 0.105357 1.46957 0 2 0C2.53043 0 3.03914 0.105357 3.41421 0.292893C3.78929 0.48043 4 0.734784 4 1C4 1.26522 3.78929 1.51957 3.41421 1.70711C3.03914 1.89464 2.53043 2 2 2C1.46957 2 0.960859 1.89464 0.585786 1.70711C0.210714 1.51957 0 1.26522 0 1Z" fill="#666666"/>
</svg>
