<svg width="15" height="15" viewBox="0 0 20 20" fill="none" xmlns="http://www.w3.org/2000/svg">
<mask id="mask0_201_36" style="mask-type:luminance" maskUnits="userSpaceOnUse" x="0" y="0" width="20" height="20">
<path d="M0 0H20V20H0V0Z" fill="white"/>
</mask>
<g mask="url(#mask0_201_36)">
<path fill-rule="evenodd" clip-rule="evenodd" d="M0 0H20V20H0V0ZM8.75 2.91667C8.75 2.58515 8.8817 2.2672 9.11612 2.03278C9.35054 1.79836 9.66848 1.66667 10 1.66667C10.3315 1.66667 10.6495 1.79836 10.8839 2.03278C11.1183 2.2672 11.25 2.58515 11.25 2.91667V12.9167C11.25 13.2482 11.1183 13.5661 10.8839 13.8005C10.6495 14.035 10.3315 14.1667 10 14.1667C9.66848 14.1667 9.35054 14.035 9.11612 13.8005C8.8817 13.5661 8.75 13.2482 8.75 12.9167V2.91667ZM10 15.8333C9.66848 15.8333 9.35054 15.965 9.11612 16.1995C8.8817 16.4339 8.75 16.7518 8.75 17.0833C8.75 17.4149 8.8817 17.7328 9.11612 17.9672C9.35054 18.2016 9.66848 18.3333 10 18.3333C10.3315 18.3333 10.6495 18.2016 10.8839 17.9672C11.1183 17.7328 11.25 17.4149 11.25 17.0833C11.25 16.7518 11.1183 16.4339 10.8839 16.1995C10.6495 15.965 10.3315 15.8333 10 15.8333Z" fill="#6B6F76"/>
</g>
</svg>
