<svg width="15" height="15" viewBox="0 0 20 20" fill="none" xmlns="http://www.w3.org/2000/svg">
<path d="M10 5L10 15C11.3833 15 12.5627 14.5123 13.538 13.537C14.5133 12.5617 15.0007 11.3827 15 10C15 8.61667 14.5123 7.43733 13.537 6.462C12.5617 5.48667 11.3827 4.99933 10 5ZM10 0C11.3833 0 12.6833 0.262667 13.9 0.788C15.1167 1.31333 16.175 2.02567 17.075 2.925C17.975 3.825 18.6873 4.88333 19.212 6.1C19.7367 7.31667 19.9993 8.61667 20 10C20 11.3833 19.7373 12.6833 19.212 13.9C18.6867 15.1167 17.9743 16.175 17.075 17.075C16.175 17.975 15.1167 18.6873 13.9 19.212C12.6833 19.7367 11.3833 19.9993 10 20C8.61667 20 7.31667 19.7373 6.1 19.212C4.88333 18.6867 3.825 17.9743 2.925 17.075C2.025 16.175 1.31233 15.1167 0.787001 13.9C0.261667 12.6833 -0.000666667 11.3833 0 10C0 8.61667 0.262667 7.31667 0.788 6.1C1.31333 4.88333 2.02567 3.825 2.925 2.925C3.825 2.025 4.88333 1.31233 6.1 0.787001C7.31667 0.261667 8.61667 -0.000666667 10 0ZM10 2C7.76667 2 5.875 2.775 4.325 4.325C2.775 5.875 2 7.76667 2 10C2 12.2333 2.775 14.125 4.325 15.675C5.875 17.225 7.76667 18 10 18C12.2333 18 14.125 17.225 15.675 15.675C17.225 14.125 18 12.2333 18 10C18 7.76667 17.225 5.875 15.675 4.325C14.125 2.775 12.2333 2 10 2Z" fill="#F1CA4A"/>
</svg>
